<svg xmlns="http://www.w3.org/2000/svg" viewBox="0 0 100 100" width="100" height="100">
  <defs>
    <linearGradient id="skinGrad3" x1="0%" y1="0%" x2="100%" y2="100%">
      <stop offset="0%" style="stop-color:#E8B896;stop-opacity:1" />
      <stop offset="100%" style="stop-color:#D4A574;stop-opacity:1" />
    </linearGradient>
    <linearGradient id="hairGrad3" x1="0%" y1="0%" x2="100%" y2="100%">
      <stop offset="0%" style="stop-color:#8B4513;stop-opacity:1" />
      <stop offset="100%" style="stop-color:#5D2F0A;stop-opacity:1" />
    </linearGradient>
  </defs>
  
  <!-- Background Circle -->
  <circle cx="50" cy="50" r="48" fill="#E8F5E8" stroke="#4CAF50" stroke-width="2"/>
  
  <!-- Face -->
  <circle cx="50" cy="45" r="25" fill="url(#skinGrad3)"/>
  
  <!-- Hair (ponytail style) -->
  <path d="M 28 32 Q 50 18 72 32 Q 70 28 65 30 Q 60 25 55 25 Q 50 20 45 25 Q 40 25 35 30 Q 30 28 28 32 Z" fill="url(#hairGrad3)"/>
  <ellipse cx="35" cy="25" rx="8" ry="15" fill="url(#hairGrad3)" transform="rotate(-30 35 25)"/>
  <ellipse cx="65" cy="25" rx="8" ry="15" fill="url(#hairGrad3)" transform="rotate(30 65 25)"/>
  
  <!-- Eyes -->
  <circle cx="42" cy="40" r="3" fill="#8BC34A"/>
  <circle cx="58" cy="40" r="3" fill="#8BC34A"/>
  <circle cx="43" cy="39" r="1" fill="#FFFFFF"/>
  <circle cx="59" cy="39" r="1" fill="#FFFFFF"/>
  
  <!-- Nose -->
  <circle cx="50" cy="47" r="1.5" fill="#D4A574"/>
  
  <!-- Mouth -->
  <path d="M 44 53 Q 50 58 56 53" stroke="#FF4081" stroke-width="2" fill="none" stroke-linecap="round"/>
  
  <!-- Body (lab coat) -->
  <ellipse cx="50" cy="75" rx="15" ry="20" fill="#FFFFFF"/>
  <ellipse cx="50" cy="75" rx="12" ry="17" fill="#4CAF50"/>
  
  <!-- Arms -->
  <circle cx="35" cy="65" r="5" fill="url(#skinGrad3)"/>
  <circle cx="65" cy="65" r="5" fill="url(#skinGrad3)"/>
  
  <!-- Microscope -->
  <rect x="62" y="60" width="6" height="10" fill="#424242"/>
  <circle cx="65" cy="58" r="3" fill="#9E9E9E"/>
  <circle cx="65" cy="58" r="1.5" fill="#2196F3"/>
  
  <!-- Science atoms decoration -->
  <circle cx="15" cy="15" r="4" fill="#FF4081"/>
  <circle cx="12" cy="10" r="1.5" fill="#2196F3"/>
  <circle cx="18" cy="10" r="1.5" fill="#4CAF50"/>
  <circle cx="15" cy="20" r="1.5" fill="#FF9800"/>
</svg>