<svg xmlns="http://www.w3.org/2000/svg" viewBox="0 0 100 100" width="100" height="100">
  <defs>
    <linearGradient id="skinGrad6" x1="0%" y1="0%" x2="100%" y2="100%">
      <stop offset="0%" style="stop-color:#F7D794;stop-opacity:1" />
      <stop offset="100%" style="stop-color:#E17055;stop-opacity:1" />
    </linearGradient>
    <linearGradient id="hairGrad6" x1="0%" y1="0%" x2="100%" y2="100%">
      <stop offset="0%" style="stop-color:#A0522D;stop-opacity:1" />
      <stop offset="100%" style="stop-color:#8B4513;stop-opacity:1" />
    </linearGradient>
  </defs>
  
  <!-- Background Circle -->
  <circle cx="50" cy="50" r="48" fill="#E8F8F5" stroke="#00BCD4" stroke-width="2"/>
  
  <!-- Face -->
  <circle cx="50" cy="45" r="25" fill="url(#skinGrad6)"/>
  
  <!-- Hair (sporty short cut) -->
  <path d="M 26 32 Q 35 18 50 20 Q 65 18 74 32 Q 70 25 62 28 Q 58 22 54 24 Q 50 20 46 24 Q 42 22 38 28 Q 30 25 26 32 Z" fill="url(#hairGrad6)"/>
  
  <!-- Sweatband -->
  <rect x="30" y="25" width="40" height="4" fill="#00BCD4"/>
  
  <!-- Eyes (determined) -->
  <circle cx="42" cy="40" r="3" fill="#00695C"/>
  <circle cx="58" cy="40" r="3" fill="#00695C"/>
  <circle cx="43" cy="39" r="1" fill="#FFFFFF"/>
  <circle cx="59" cy="39" r="1" fill="#FFFFFF"/>
  
  <!-- Nose -->
  <circle cx="50" cy="47" r="1.5" fill="#E17055"/>
  
  <!-- Mouth (confident smile) -->
  <path d="M 43 52 Q 50 59 57 52" stroke="#FF5722" stroke-width="2" fill="none" stroke-linecap="round"/>
  
  <!-- Body (sports uniform) -->
  <ellipse cx="50" cy="75" rx="15" ry="20" fill="#00BCD4"/>
  <rect x="45" y="65" width="10" height="12" fill="#FFFFFF"/>
  <text x="50" y="73" font-family="Arial" font-size="8" text-anchor="middle" fill="#00BCD4">10</text>
  
  <!-- Arms -->
  <circle cx="35" cy="65" r="5" fill="url(#skinGrad6)"/>
  <circle cx="65" cy="65" r="5" fill="url(#skinGrad6)"/>
  
  <!-- Soccer ball -->
  <circle cx="30" cy="60" r="5" fill="#FFFFFF"/>
  <path d="M 25 60 Q 30 55 35 60 Q 30 65 25 60" fill="#212121"/>
  <path d="M 30 55 L 30 65 M 25 60 L 35 60" stroke="#212121" stroke-width="1"/>
  
  <!-- Trophy decoration -->
  <rect x="80" y="15" width="8" height="12" fill="#FFD700"/>
  <ellipse cx="84" cy="13" rx="6" ry="3" fill="#FFC107"/>
  <rect x="82" y="27" width="4" height="3" fill="#8D6E63"/>
  <circle cx="84" cy="20" r="2" fill="#FF5722"/>
</svg>