<svg xmlns="http://www.w3.org/2000/svg" viewBox="0 0 100 100" width="100" height="100">
  <defs>
    <linearGradient id="skinGrad4" x1="0%" y1="0%" x2="100%" y2="100%">
      <stop offset="0%" style="stop-color:#F4C2A1;stop-opacity:1" />
      <stop offset="100%" style="stop-color:#E8B896;stop-opacity:1" />
    </linearGradient>
    <linearGradient id="hairGrad4" x1="0%" y1="0%" x2="100%" y2="100%">
      <stop offset="0%" style="stop-color:#FFD700;stop-opacity:1" />
      <stop offset="100%" style="stop-color:#FFA000;stop-opacity:1" />
    </linearGradient>
  </defs>
  
  <!-- Background Circle -->
  <circle cx="50" cy="50" r="48" fill="#FFF3E0" stroke="#FF9800" stroke-width="2"/>
  
  <!-- Face -->
  <circle cx="50" cy="45" r="25" fill="url(#skinGrad4)"/>
  
  <!-- Hair (messy adventurer style) -->
  <path d="M 25 30 Q 30 15 50 18 Q 70 15 75 30 Q 72 25 65 28 Q 60 22 55 25 Q 52 18 48 25 Q 45 22 40 28 Q 33 25 25 30 Z" fill="url(#hairGrad4)"/>
  
  <!-- Eyes (excited) -->
  <circle cx="42" cy="40" r="3" fill="#795548"/>
  <circle cx="58" cy="40" r="3" fill="#795548"/>
  <circle cx="43" cy="39" r="1" fill="#FFFFFF"/>
  <circle cx="59" cy="39" r="1" fill="#FFFFFF"/>
  
  <!-- Adventurer hat -->
  <ellipse cx="50" cy="25" rx="20" ry="8" fill="#8D6E63"/>
  <rect x="40" y="20" width="20" height="6" fill="#6D4C41"/>
  
  <!-- Nose -->
  <circle cx="50" cy="47" r="1.5" fill="#E8B896"/>
  
  <!-- Mouth (big smile) -->
  <path d="M 42 52 Q 50 60 58 52" stroke="#FF5722" stroke-width="2" fill="none" stroke-linecap="round"/>
  
  <!-- Body (adventure vest) -->
  <ellipse cx="50" cy="75" rx="15" ry="20" fill="#FF9800"/>
  <rect x="45" y="68" width="10" height="8" fill="#8D6E63"/>
  
  <!-- Arms -->
  <circle cx="35" cy="65" r="5" fill="url(#skinGrad4)"/>
  <circle cx="65" cy="65" r="5" fill="url(#skinGrad4)"/>
  
  <!-- Compass -->
  <circle cx="30" cy="65" r="4" fill="#424242"/>
  <circle cx="30" cy="65" r="2" fill="#FFFFFF"/>
  <path d="M 30 63 L 30 67 M 28 65 L 32 65" stroke="#FF5722" stroke-width="1"/>
  
  <!-- Mountain decoration -->
  <path d="M 80 10 L 85 20 L 90 15 L 95 25 L 75 25 Z" fill="#8D6E63"/>
  <circle cx="85" cy="8" r="3" fill="#FFEB3B"/>
</svg>