<svg xmlns="http://www.w3.org/2000/svg" viewBox="0 0 100 100" width="100" height="100">
  <defs>
    <linearGradient id="skinGrad5" x1="0%" y1="0%" x2="100%" y2="100%">
      <stop offset="0%" style="stop-color:#DDBEA9;stop-opacity:1" />
      <stop offset="100%" style="stop-color:#CB997E;stop-opacity:1" />
    </linearGradient>
    <linearGradient id="hairGrad5" x1="0%" y1="0%" x2="100%" y2="100%">
      <stop offset="0%" style="stop-color:#6A4C93;stop-opacity:1" />
      <stop offset="100%" style="stop-color:#4A3572;stop-opacity:1" />
    </linearGradient>
  </defs>
  
  <!-- Background Circle -->
  <circle cx="50" cy="50" r="48" fill="#FCE4EC" stroke="#E91E63" stroke-width="2"/>
  
  <!-- Face -->
  <circle cx="50" cy="45" r="25" fill="url(#skinGrad5)"/>
  
  <!-- Hair (artistic wavy style) -->
  <path d="M 25 35 Q 30 20 40 25 Q 45 15 50 20 Q 55 15 60 25 Q 70 20 75 35 Q 72 30 68 32 Q 65 28 62 30 Q 58 26 54 28 Q 50 24 46 28 Q 42 26 38 30 Q 35 28 32 32 Q 28 30 25 35 Z" fill="url(#hairGrad5)"/>
  
  <!-- Eyes (creative sparkle) -->
  <circle cx="42" cy="40" r="3" fill="#9C27B0"/>
  <circle cx="58" cy="40" r="3" fill="#9C27B0"/>
  <circle cx="43" cy="39" r="1" fill="#FFFFFF"/>
  <circle cx="59" cy="39" r="1" fill="#FFFFFF"/>
  
  <!-- Artistic beret -->
  <ellipse cx="48" cy="25" rx="18" ry="10" fill="#E91E63"/>
  <circle cx="38" cy="22" r="3" fill="#FF4081"/>
  
  <!-- Nose -->
  <circle cx="50" cy="47" r="1.5" fill="#CB997E"/>
  
  <!-- Mouth -->
  <path d="M 44 53 Q 50 58 56 53" stroke="#E91E63" stroke-width="2" fill="none" stroke-linecap="round"/>
  
  <!-- Body (artistic smock) -->
  <ellipse cx="50" cy="75" rx="15" ry="20" fill="#F8BBD9"/>
  <circle cx="45" cy="70" r="2" fill="#9C27B0"/>
  <circle cx="55" cy="72" r="2" fill="#FF9800"/>
  <circle cx="50" cy="80" r="2" fill="#4CAF50"/>
  
  <!-- Arms -->
  <circle cx="35" cy="65" r="5" fill="url(#skinGrad5)"/>
  <circle cx="65" cy="65" r="5" fill="url(#skinGrad5)"/>
  
  <!-- Paint palette -->
  <ellipse cx="65" cy="60" rx="6" ry="4" fill="#FFFFFF"/>
  <circle cx="62" cy="58" r="1.5" fill="#F44336"/>
  <circle cx="66" cy="58" r="1.5" fill="#2196F3"/>
  <circle cx="68" cy="61" r="1.5" fill="#FFEB3B"/>
  
  <!-- Paintbrush -->
  <rect x="29" y="60" width="8" height="2" fill="#8D6E63"/>
  <rect x="27" y="60.5" width="4" height="1" fill="#E91E63"/>
  
  <!-- Artistic stars decoration -->
  <path d="M 85 15 L 87 20 L 92 20 L 88 23 L 90 28 L 85 25 L 80 28 L 82 23 L 78 20 L 83 20 Z" fill="#FF9800"/>
  <circle cx="15" cy="85" r="3" fill="#9C27B0"/>
</svg>