<svg xmlns="http://www.w3.org/2000/svg" viewBox="0 0 100 100" width="100" height="100">
  <defs>
    <linearGradient id="skinGrad1" x1="0%" y1="0%" x2="100%" y2="100%">
      <stop offset="0%" style="stop-color:#FDBCB4;stop-opacity:1" />
      <stop offset="100%" style="stop-color:#F8AFA6;stop-opacity:1" />
    </linearGradient>
    <linearGradient id="hairGrad1" x1="0%" y1="0%" x2="100%" y2="100%">
      <stop offset="0%" style="stop-color:#8B4513;stop-opacity:1" />
      <stop offset="100%" style="stop-color:#654321;stop-opacity:1" />
    </linearGradient>
  </defs>
  
  <!-- Background Circle -->
  <circle cx="50" cy="50" r="48" fill="#E8F5E8" stroke="#4CAF50" stroke-width="2"/>
  
  <!-- Face -->
  <circle cx="50" cy="45" r="25" fill="url(#skinGrad1)"/>
  
  <!-- Hair -->
  <path d="M 25 35 Q 25 15 50 15 Q 75 15 75 35 Q 75 25 65 30 Q 50 20 35 30 Q 25 25 25 35 Z" fill="url(#hairGrad1)"/>
  
  <!-- Eyes -->
  <circle cx="42" cy="40" r="3" fill="#2E7D32"/>
  <circle cx="58" cy="40" r="3" fill="#2E7D32"/>
  <circle cx="43" cy="39" r="1" fill="#FFFFFF"/>
  <circle cx="59" cy="39" r="1" fill="#FFFFFF"/>
  
  <!-- Nose -->
  <circle cx="50" cy="47" r="1.5" fill="#F8AFA6"/>
  
  <!-- Mouth -->
  <path d="M 45 52 Q 50 57 55 52" stroke="#E91E63" stroke-width="2" fill="none" stroke-linecap="round"/>
  
  <!-- Cheeks -->
  <circle cx="37" cy="50" r="3" fill="#FFB3BA" opacity="0.6"/>
  <circle cx="63" cy="50" r="3" fill="#FFB3BA" opacity="0.6"/>
  
  <!-- Body -->
  <ellipse cx="50" cy="75" rx="15" ry="20" fill="#FF6B6B"/>
  
  <!-- Arms -->
  <circle cx="35" cy="65" r="5" fill="url(#skinGrad1)"/>
  <circle cx="65" cy="65" r="5" fill="url(#skinGrad1)"/>
  
  <!-- Accessories -->
  <path d="M 35 30 Q 40 25 45 30" stroke="#FF9800" stroke-width="2" fill="none"/>
  <circle cx="40" cy="32" r="2" fill="#FF9800"/>
  
  <!-- Star decoration -->
  <path d="M50,8 L52,12 L56,12 L53,15 L54,19 L50,17 L46,19 L47,15 L44,12 L48,12 Z" fill="#FFD700"/>
</svg>